<?xml version="1.0" encoding="utf-8"?>
<!DOCTYPE svg PUBLIC "-//W3C//DTD SVG 1.0//EN" "http://www.w3.org/TR/2001/REC-SVG-20010904/DTD/svg10.dtd">
<svg version="1.0" xmlns="http://www.w3.org/2000/svg" width="726px" height="420px" viewBox="0 0 726 420" preserveAspectRatio="xMidYMid meet">
 <g fill="#ffffff">
  <path d="M359.5 405.3 c-2.6 -0.7 -5.5 -3.3 -5.5 -5 0 -2.1 1.4 -1.5 2.5 1 0.8 1.7 2 2.3 5.2 2.5 5.4 0.4 8 -1 8.8 -4.9 0.9 -3.9 0.2 -4.5 -2.7 -2.5 -5 3.5 -12.9 0.9 -14.8 -4.9 -1.4 -4.3 0.1 -9.7 3.3 -12 2.5 -1.8 9 -2 12 -0.4 1.6 0.9 2.2 0.9 2.5 0 0.2 -0.6 0.8 -1.1 1.4 -1.1 0.6 0 0.8 4.2 0.6 11.5 -0.3 9.9 -0.6 11.7 -2.3 13.4 -2.1 2.1 -7.6 3.3 -11 2.4z m7.8 -10.3 c3.1 -2.5 4.1 -6.2 2.7 -10.6 -1.3 -3.8 -3.5 -5.4 -7.5 -5.4 -1.4 0 -3.5 0.4 -4.5 1 -2.4 1.3 -4.3 7 -3.4 10.4 0.8 3.2 4.9 6.6 7.9 6.6 1.2 0 3.4 -0.9 4.8 -2z"/>
  <path d="M439.5 405.3 c-2.6 -0.7 -5.5 -3.3 -5.5 -5 0 -2.1 1.4 -1.5 2.5 1 0.8 1.7 2 2.3 5.2 2.5 5.4 0.4 8 -1 8.8 -4.9 0.9 -3.9 0.2 -4.5 -2.7 -2.5 -5 3.5 -12.9 0.9 -14.8 -4.9 -1.4 -4.3 0.1 -9.7 3.3 -12 2.5 -1.8 9 -2 12 -0.4 1.6 0.9 2.2 0.9 2.5 0 0.2 -0.6 0.8 -1.1 1.4 -1.1 0.6 0 0.8 4.2 0.6 11.5 -0.3 9.9 -0.6 11.7 -2.3 13.4 -2.1 2.1 -7.6 3.3 -11 2.4z m7.8 -10.3 c3.1 -2.5 4.1 -6.2 2.7 -10.6 -1.3 -3.8 -3.5 -5.4 -7.5 -5.4 -1.4 0 -3.5 0.4 -4.5 1 -2.4 1.3 -4.3 7 -3.4 10.4 0.8 3.2 4.9 6.6 7.9 6.6 1.2 0 3.4 -0.9 4.8 -2z"/>
  <path d="M548.5 405.3 c-2.6 -0.7 -5.5 -3.3 -5.5 -5 0 -2.1 1.4 -1.5 2.5 1 0.8 1.7 1.9 2.3 5.5 2.5 5.2 0.3 7.6 -1.1 8.6 -5.1 l0.7 -2.9 -3.1 1.6 c-4.7 2.4 -10.1 1.6 -12.4 -1.8 -1.2 -1.7 -1 -17.6 0.2 -17.6 0.6 0 1 3.5 1 8.4 0 9.3 0.9 10.9 6.1 10.9 5.2 0 7.3 -3.2 7.7 -11.8 0.7 -12.3 2.4 -8.8 2 4 -0.3 9.9 -0.6 11.7 -2.3 13.4 -2.1 2.1 -7.6 3.3 -11 2.4z"/>
  <path d="M58.5 398.3 c-3.2 -0.8 -6.3 -4.2 -6.9 -7.8 -0.8 -4.1 1.4 -9.9 4.2 -11.4 2.8 -1.5 10.5 -1.4 12.1 0.2 1.1 1 1.4 1 1.8 0 1.4 -3.7 2.3 -0.2 2.3 8.7 0 6 -0.4 10 -1 10 -0.5 0 -1 -0.7 -1 -1.7 0 -1.5 -0.2 -1.5 -1.7 -0.1 -2.1 1.8 -6.9 2.8 -9.8 2.1z m9 -3.8 c5.4 -5.3 1.9 -15.5 -5.1 -15.5 -4.7 0 -6.9 1.3 -8.4 5 -1.5 3.5 -0.7 8.6 1.7 11.2 2.5 2.7 8.8 2.4 11.8 -0.7z"/>
  <path d="M87.4 398.3 c-6.6 -1.3 -9.4 -12.5 -4.4 -17.8 3.1 -3.3 8 -4.2 12.1 -2.1 1.8 0.9 3.4 1.6 3.6 1.6 0.1 0 0.3 -2.2 0.3 -5 0 -2.7 0.5 -5 1 -5 0.6 0 1 5.3 1 14 0 8.7 -0.4 14 -1 14 -0.5 0 -1 -0.7 -1 -1.7 0 -1.5 -0.2 -1.5 -1.7 -0.1 -2 1.8 -6.7 2.8 -9.9 2.1z m9.1 -3.8 c3.3 -3.2 3.4 -9.3 0.2 -13 -3 -3.6 -9.2 -3.8 -11.9 -0.5 -5.4 6.7 -2.1 16 5.7 16 2.5 0 4.4 -0.8 6 -2.5z"/>
  <path d="M202.5 398.3 c-3.2 -0.8 -6.3 -4.2 -6.9 -7.8 -0.8 -4.1 1.4 -9.9 4.2 -11.4 2.8 -1.5 10.5 -1.4 12.1 0.2 1.1 1 1.4 1 1.8 0 1.4 -3.7 2.3 -0.2 2.3 8.7 0 6 -0.4 10 -1 10 -0.5 0 -1 -0.7 -1 -1.7 0 -1.5 -0.2 -1.5 -1.7 -0.1 -2.1 1.8 -6.9 2.8 -9.8 2.1z m9 -3.8 c5.4 -5.3 1.9 -15.5 -5.1 -15.5 -4.7 0 -6.9 1.3 -8.4 5 -1.5 3.5 -0.7 8.6 1.7 11.2 2.5 2.7 8.8 2.4 11.8 -0.7z"/>
  <path d="M276.2 397.9 c-6.5 -1.9 -8.1 -12.9 -2.7 -17.6 3.8 -3.3 11.7 -3.2 15 0.2 1.4 1.3 2.5 3.6 2.5 5 l0 2.5 -9.5 0 c-8.6 0 -9.5 0.2 -9.5 1.9 0 1 0.9 3 2.1 4.5 1.6 2.1 2.9 2.6 6.4 2.6 3.5 0 4.8 -0.5 6.4 -2.7 2.4 -2.9 3.8 -2.6 2.2 0.6 -0.9 1.6 -7 4.4 -9.1 4 -0.3 0 -2 -0.5 -3.8 -1z m12.8 -12.3 c0 -0.7 -0.9 -2.5 -2.1 -4 -3.8 -4.8 -12.6 -2.9 -14.4 3.2 -0.6 2.2 -0.5 2.2 7.9 2.2 6.6 0 8.6 -0.3 8.6 -1.4z"/>
  <path d="M466.2 397.9 c-6.5 -1.9 -8.1 -12.9 -2.7 -17.6 3.8 -3.3 11.7 -3.2 15 0.2 1.4 1.3 2.5 3.6 2.5 5 l0 2.5 -9.5 0 c-8.6 0 -9.5 0.2 -9.5 1.9 0 1 0.9 3 2.1 4.5 1.6 2.1 2.9 2.6 6.4 2.6 3.5 0 4.8 -0.5 6.4 -2.7 2.4 -2.9 3.8 -2.6 2.2 0.6 -0.9 1.6 -7 4.4 -9.1 4 -0.3 0 -2 -0.5 -3.8 -1z m12.8 -12.3 c0 -0.7 -0.9 -2.5 -2.1 -4 -3.8 -4.8 -12.6 -2.9 -14.4 3.2 -0.6 2.2 -0.5 2.2 7.9 2.2 6.6 0 8.6 -0.3 8.6 -1.4z"/>
  <path d="M520 397.2 c-6.3 -3.1 -7.3 -13.8 -1.7 -17.7 2.8 -2 10.6 -1.9 13.5 0.1 2.2 1.5 3 4.4 1.2 4.4 -0.5 0 -1 -0.4 -1 -0.9 0 -2.1 -3.4 -4.1 -6.9 -4.1 -6.3 0 -10.3 6.4 -8 12.9 1.3 3.7 3.5 5.1 8.3 5.1 3.3 0 6.6 -2 6.6 -4.1 0 -0.5 0.7 -0.9 1.5 -0.9 2.7 0 -0.2 4 -4 5.6 -4.4 1.8 -5.3 1.8 -9.5 -0.4z"/>
  <path d="M111 388 c0 -6 0.4 -10 1 -10 0.6 0 1 0.5 1 1.2 0 0.9 0.3 0.9 1.2 0 0.7 -0.7 3.3 -1.2 5.9 -1.2 6.9 0 8.9 2.8 8.9 12.6 0 4.3 -0.4 7.4 -1 7.4 -0.6 0 -1 -3.1 -1 -7.3 0 -9.1 -1.5 -11.7 -6.9 -11.7 -5.8 0 -7.1 2.1 -7.1 11.3 0 4.5 -0.4 7.7 -1 7.7 -0.6 0 -1 -4 -1 -10z"/>
  <path d="M157 384 c0 -18.2 0.8 -18.3 9.4 -1.3 l6.4 12.8 6.3 -12.8 c3.5 -7 6.9 -12.7 7.6 -12.7 1 0 1.3 3.4 1.3 14 0 17.3 -1.8 19.1 -2.2 2.3 l-0.3 -11.8 -6 11.8 c-3.3 6.4 -6.4 11.7 -7 11.7 -0.6 0 -3.5 -5.2 -6.4 -11.5 -3 -6.3 -5.8 -11.5 -6.2 -11.5 -0.5 0 -0.9 5.2 -0.9 11.5 0 7 -0.4 11.5 -1 11.5 -0.6 0 -1 -5.3 -1 -14z"/>
  <path d="M226 388 c0 -6 0.4 -10 1 -10 0.6 0 1 0.5 1 1 0 0.7 0.7 0.7 2.1 0 1.1 -0.6 3 -0.9 4.2 -0.7 l2.2 0.4 -2.2 0.2 c-4 0.2 -6.3 4.6 -6.3 12.2 0 3.9 -0.4 6.9 -1 6.9 -0.6 0 -1 -4 -1 -10z"/>
  <path d="M245 384 c0 -8.7 0.4 -14 1 -14 0.6 0 1 3.5 1 8.5 0 4.7 0.3 8.5 0.8 8.5 0.4 0 3.4 -2.1 6.6 -4.5 3.3 -2.5 6.6 -4.5 7.4 -4.5 0.8 0 -0.5 1.4 -2.9 3.1 -2.4 1.7 -4.8 3.6 -5.4 4 -0.5 0.6 1.4 3.2 5 6.9 3.3 3.3 5.3 6 4.6 6 -0.8 0 -3.7 -2.5 -6.5 -5.6 -4.8 -5.4 -5.3 -5.6 -7.4 -4.3 -1.7 1.1 -2.2 2.3 -2.2 5.6 0 2.4 -0.4 4.3 -1 4.3 -0.6 0 -1 -5.3 -1 -14z"/>
  <path d="M302 389.1 c0 -8.5 -0.1 -9 -2.2 -9.4 l-2.3 -0.4 2.3 -0.2 c1.8 -0.1 2.2 -0.7 2.2 -3.1 0 -1.6 0.5 -3 1 -3 0.6 0 1 1.3 1 2.9 0 2.3 0.5 3.1 2.3 3.4 l2.2 0.4 -2.2 0.2 c-2.2 0.1 -2.3 0.5 -2.3 9.1 0 5.3 -0.4 9 -1 9 -0.6 0 -1 -3.6 -1 -8.9z"/>
  <path d="M316 388 c0 -6 0.4 -10 1 -10 0.6 0 1 4 1 10 0 6 -0.4 10 -1 10 -0.6 0 -1 -4 -1 -10z"/>
  <path d="M327 388 c0 -6 0.4 -10 1 -10 0.6 0 1 0.5 1 1.2 0 0.9 0.3 0.9 1.2 0 0.7 -0.7 3.3 -1.2 5.9 -1.2 6.9 0 8.9 2.8 8.9 12.6 0 4.3 -0.4 7.4 -1 7.4 -0.6 0 -1 -3.1 -1 -7.3 0 -9.1 -1.5 -11.7 -6.9 -11.7 -5.8 0 -7.1 2.1 -7.1 11.3 0 4.5 -0.4 7.7 -1 7.7 -0.6 0 -1 -4 -1 -10z"/>
  <path d="M405.6 384.3 c3.5 -7.6 6.9 -13.8 7.5 -13.8 1 0 10.6 19.7 12.4 25.6 1.3 4 -1.4 1.7 -3.1 -2.6 l-1.7 -4.5 -7.8 0 -7.7 0 -1.8 4.5 c-0.9 2.5 -2.3 4.5 -3 4.5 -0.8 0 1.2 -5.2 5.2 -13.7z m13.5 1.5 c-0.5 -1.3 -2 -4.7 -3.4 -7.7 -2.8 -6 -2.5 -6.2 -7.1 4.2 l-2.5 5.7 6.9 0 c6.8 0 6.9 0 6.1 -2.2z"/>
  <path d="M489 388 c0 -6 0.4 -10 1 -10 0.6 0 1 0.5 1 1.2 0 0.9 0.3 0.9 1.2 0 0.7 -0.7 3.3 -1.2 5.9 -1.2 6.9 0 8.9 2.8 8.9 12.6 0 4.3 -0.4 7.4 -1 7.4 -0.6 0 -1 -3.1 -1 -7.3 0 -9.1 -1.5 -11.7 -6.9 -11.7 -5.8 0 -7.1 2.1 -7.1 11.3 0 4.5 -0.4 7.7 -1 7.7 -0.6 0 -1 -4 -1 -10z"/>
  <path d="M316 371.5 c0 -0.8 0.5 -1.5 1 -1.5 0.6 0 1 0.7 1 1.5 0 0.8 -0.4 1.5 -1 1.5 -0.5 0 -1 -0.7 -1 -1.5z"/>
  <path d="M239.5 350.3 c-9.8 -0.9 -24.2 -5.4 -28.5 -8.9 -0.8 -0.6 -2.9 -1.9 -4.6 -2.7 -1.7 -0.9 -6.5 -5 -10.6 -9.1 -7.5 -7.4 -13.2 -16.2 -15.8 -24.1 -0.7 -2.2 -1.7 -4.5 -2.2 -5.1 -2.1 -2.8 -2.8 -21.9 -2.8 -81.6 0 -54.6 -0.2 -63.8 -1.4 -63.8 -0.8 0 -2.6 2.5 -4 5.5 -5.9 12.9 -21.8 32.6 -33.1 41 -2.2 1.6 -4.2 3.3 -4.5 3.6 -0.3 0.3 -2.7 1.8 -5.3 3.2 -8.3 4.7 -10.1 6 -14.6 10.6 -13.2 13.7 -17.7 33.2 -11.8 51.3 10.5 32.2 46 43.2 68.5 21.2 l4.2 -4.2 0 4.2 c0 2.3 -0.4 4.6 -0.9 5.1 -0.4 0.6 -1.5 3 -2.3 5.5 -1.4 4.2 -2.9 6.8 -9 15.9 -3 4.3 -12.3 13.9 -16.8 17.2 -21.1 15.4 -48.6 19 -73 9.7 -8.7 -3.4 -13.3 -6.1 -20.5 -12.2 -7.9 -6.8 -10.6 -9.8 -16.1 -17.9 -5.3 -8 -9.9 -18.8 -11.6 -27.2 -1.5 -8 -1.5 -29.5 0.1 -37 2 -9.4 8.4 -23 14.4 -31 9.8 -13 28.7 -25.9 41.2 -28.1 2.2 -0.3 4.9 -1.1 6 -1.7 1.1 -0.6 8.3 -1 17 -0.9 17 0.2 25.6 -1 33.5 -4.5 10.2 -4.6 20.6 -12.7 26.8 -20.8 3.7 -5 9.2 -13.9 9.2 -15 0 -0.5 0.8 -2.3 1.8 -4 1.5 -2.7 1.7 -6.3 1.7 -35 -0.1 -30.7 -0.2 -32.2 -2.4 -38 -5.6 -15.1 -13.7 -22.4 -26.1 -23.8 -14.8 -1.7 -27.9 -0.3 -33.8 3.5 -6.6 4.4 -14 15.1 -15.5 22.4 -0.3 1.7 -0.9 20.8 -1.3 42.5 -0.4 21.7 -0.8 39.5 -0.9 39.7 -0.1 0.1 -3 0.8 -6.4 1.4 -13.3 2.5 -27.4 -2.6 -35 -12.7 -9.1 -12.1 -11.6 -20.2 -10.8 -35.5 0.5 -11 2.4 -17.2 7.4 -24.4 6 -8.5 9.5 -12.2 20 -20.6 3.3 -2.7 21.7 -11.4 27.8 -13.2 10.2 -2.9 19.3 -4.7 24.6 -4.8 2.5 0 6 -0.5 7.8 -1.1 2.4 -0.8 5.7 -0.8 12.9 0 13.9 1.7 23.5 3.2 24.7 4 0.6 0.4 3.5 1.3 6.5 2.1 5.6 1.3 9.1 2.8 19.2 8 l5.6 3 4.2 -4 c8.9 -8.6 22.8 -16 34 -18.1 8.5 -1.6 24.9 -1.6 32.5 0 16.2 3.5 31.7 13.5 41.7 26.9 4.5 6 10.3 17.9 11.3 23.2 l0.8 3.5 -5.3 -5.2 c-9.7 -9.7 -18.5 -13 -31.8 -12 -10.1 0.8 -18.5 5.1 -25.9 13.2 -4.5 4.9 -5.8 7.3 -7.9 14.2 l-2.5 8.3 0.5 71.7 c0.4 72.3 1.2 93.9 3.5 98.1 4.5 8.4 10.9 14.7 18.8 18.8 7.3 3.7 19.4 4.5 28.9 1.9 3.5 -0.9 6.4 -2.1 6.4 -2.5 0 -0.5 0.9 -1.2 2.1 -1.5 5.5 -1.8 15.3 -14.2 17.4 -22 0.4 -1.7 1.1 -48 1.5 -103 l0.7 -100 2.6 -7 c7.1 -18.9 19.3 -32.7 36.2 -40.9 13.4 -6.6 26.8 -8.7 41.9 -6.7 12.3 1.7 12.4 1.7 7.6 5.8 -2.2 1.9 -6.1 6 -8.5 9 l-4.5 5.5 0 121.1 c0 116.9 -0.1 121.6 -2 131.7 -4 21.1 -14.7 36.6 -33.4 48.8 -2.7 1.8 -5.4 3.2 -6 3.2 -0.6 0 -2.4 0.7 -4.1 1.6 -8.8 4.6 -11.3 4.8 -65 5 -28 0.1 -52.8 0 -55 -0.3z"/>
  <path d="M544.8 349 c-9.1 -1.6 -22.9 -8 -31.3 -14.4 -9.7 -7.5 -20.1 -21 -23.1 -30.2 -0.9 -2.7 -2 -5.3 -2.4 -5.9 -2.7 -3.6 -3.1 -15.3 -3.7 -99 l-0.5 -87 -2.3 -7.2 c-3.9 -12.2 -9.9 -18.8 -22.2 -24.5 -5.8 -2.8 -7.6 -3.1 -15.2 -3.1 -7.3 0.1 -9.6 0.5 -15.2 3.1 -7.1 3.2 -15.7 11 -19 17.2 -2.7 5.1 -2.3 2.1 1 -7.3 7.9 -22.7 23.8 -38.4 47.9 -47 8.3 -2.9 9.4 -3.1 23.7 -3.1 14.4 0 15.4 0.2 24.5 3.4 5.2 1.8 10.2 3.8 11 4.4 0.8 0.6 3.1 2 5 3.1 1.9 1 4.1 2.4 4.9 2.9 1.9 1.4 15.3 14.9 16.6 16.7 2.7 3.6 8.5 15.2 9.6 19.1 0.7 2.3 1.6 4.8 2 5.3 2.4 3.2 2.9 23.4 2.9 120.7 l0 103 3.5 5.8 c4.1 6.7 13.7 16.1 19.8 19.2 l4.2 2.1 -5 1.4 c-5.9 1.7 -30 2.6 -36.7 1.3z"/>
  <path d="M607.3 333 c1.5 -2.5 8.9 -15 16.4 -27.7 13.6 -22.8 13.9 -23.3 17.1 -23.3 7.2 0 12.2 -5.2 12.2 -12.6 0 -2.8 -0.8 -4.4 -3.4 -7 -9.7 -9.7 -24.9 2.3 -17.8 14.1 l1.8 2.9 -15.8 26.5 c-8.8 14.6 -16 26.6 -16.1 26.7 -0.1 0.1 -0.2 -21.7 -0.2 -48.6 l0 -48.8 7.6 -0.4 c5.7 -0.3 9.2 -1.2 14.2 -3.6 7.3 -3.4 16.3 -11.2 19.3 -16.7 1 -1.9 2.2 -3.5 2.5 -3.5 0.5 0 43.4 24.9 45.7 26.5 0.1 0.1 -1.4 3.6 -3.4 7.8 -6.2 13 -5.7 27.1 1.2 39.6 1.3 2.4 2.3 4.5 2.2 4.6 -0.2 0.1 -19 10.4 -41.8 23 -22.8 12.5 -42.1 23.3 -42.9 23.9 -0.8 0.6 -0.3 -0.9 1.2 -3.4z"/>
  <path d="M670.5 221 c-12.1 -7.1 -22.4 -13.1 -22.8 -13.3 -0.7 -0.2 4.4 -10 7 -13.6 0.2 -0.3 42.4 24.1 45 26.2 1 0.7 0.5 2.4 -2.2 7.1 -1.9 3.3 -3.8 6.2 -4.2 6.3 -0.5 0.2 -10.7 -5.5 -22.8 -12.7z"/>
 </g>
</svg>